<?xml version="1.0" standalone="no"?>
<!DOCTYPE svg PUBLIC "-//W3C//DTD SVG 20010904//EN"
 "http://www.w3.org/TR/2001/REC-SVG-20010904/DTD/svg10.dtd">
<svg version="1.0" xmlns="http://www.w3.org/2000/svg"
 width="311.000000pt" height="311.000000pt" viewBox="0 0 311.000000 311.000000"
 preserveAspectRatio="xMidYMid meet">
<metadata>
Created by potrace 1.11, written by Peter Selinger 2001-2013
</metadata>
<g transform="translate(0.000000,311.000000) scale(0.100000,-0.100000)"
fill="#000000" stroke="none">
<path d="M1528 2805 c-3 -3 -262 -5 -577 -5 -314 0 -571 -1 -571 -2 -1 -2 -3
-20 -6 -40 -4 -30 -2 -38 9 -38 9 0 17 -5 19 -11 2 -7 34 -11 85 -11 68 0 82
-2 85 -16 2 -9 3 -338 3 -730 -1 -539 -4 -715 -13 -724 -7 -7 -12 -8 -12 -2 0
6 -28 10 -65 9 -36 0 -65 -4 -65 -8 0 -5 -4 -6 -9 -2 -6 3 -15 -4 -22 -17 -14
-26 -20 -80 -8 -72 5 3 9 -1 9 -8 0 -9 3 -9 10 2 5 8 10 10 10 4 0 -6 7 -11
15 -11 8 0 12 3 10 7 -2 4 9 7 25 6 17 -1 30 -4 30 -8 0 -4 11 -3 25 2 16 6
25 6 25 -1 0 -6 7 -6 20 1 14 8 20 8 20 0 0 -6 5 -8 11 -5 15 10 59 13 59 5 0
-4 7 -7 15 -7 8 0 12 3 10 7 -2 4 9 7 25 6 17 -1 30 -4 30 -8 0 -4 11 -3 25 2
16 6 25 6 25 -1 0 -6 7 -6 20 1 14 8 20 8 20 0 0 -6 5 -8 11 -5 15 10 59 13
59 5 0 -4 7 -7 15 -7 8 0 12 3 10 7 -2 4 9 7 25 6 17 -1 30 -4 30 -8 0 -4 11
-3 25 2 16 6 25 6 25 -1 0 -6 7 -6 20 1 14 8 20 8 20 0 0 -6 5 -8 11 -5 15 10
59 13 59 5 0 -4 7 -7 15 -7 8 0 12 3 10 7 -2 4 9 7 25 6 17 -1 30 -4 30 -8 0
-4 11 -3 25 2 17 6 25 6 25 -1 0 -6 5 -7 11 -4 17 11 59 13 59 2 0 -5 8 -3 17
4 15 12 16 12 8 -1 -6 -12 -5 -13 5 -3 9 8 19 9 31 3 11 -7 20 -7 24 0 4 6 15
5 30 -2 28 -12 29 -16 15 -38 -5 -9 -5 -19 2 -27 6 -7 7 -13 2 -13 -5 0 -7
-54 -4 -120 3 -66 1 -120 -3 -120 -4 0 -3 -9 3 -20 6 -11 7 -20 2 -20 -4 0 -5
-27 -2 -60 3 -33 2 -60 -2 -60 -5 0 -4 -9 2 -20 6 -11 7 -20 2 -20 -5 0 -6
-18 -2 -40 4 -22 3 -40 -2 -40 -5 0 -4 -9 2 -20 6 -11 7 -20 2 -20 -5 0 -7
-11 -4 -25 6 -36 -13 -54 -54 -50 -18 2 -31 -1 -28 -6 3 -5 -4 -5 -18 0 -14 5
-36 4 -58 -3 -32 -10 -35 -15 -38 -56 -2 -25 -1 -42 3 -38 4 4 16 3 26 -3 13
-7 19 -6 19 1 0 6 5 8 11 5 17 -11 59 -13 59 -3 0 5 9 4 20 -2 11 -6 20 -7 20
-2 0 10 36 9 46 -1 4 -4 13 -2 20 4 8 7 14 7 19 -1 5 -8 11 -8 21 1 11 9 14 9
14 -1 0 -9 3 -10 13 -1 8 6 17 8 20 5 9 -9 86 -11 80 -2 -2 5 7 4 21 -2 16 -6
27 -6 31 0 4 7 13 6 25 0 15 -8 25 -5 46 15 15 14 22 25 16 25 -6 0 -9 6 -6
14 8 21 -45 59 -62 45 -8 -6 -14 -7 -14 -2 0 5 -7 10 -15 10 -8 0 -15 -5 -15
-11 0 -7 -3 -7 -8 -1 -4 6 -22 11 -40 12 -18 0 -36 4 -39 7 -8 7 -8 694 -1
702 11 10 58 11 58 1 0 -5 8 -3 17 4 15 12 16 12 8 -1 -6 -12 -5 -13 5 -3 9 9
19 9 33 2 14 -8 17 -8 13 0 -9 14 44 -9 78 -34 14 -11 29 -28 32 -38 3 -9 10
-15 15 -12 5 4 14 -5 20 -19 7 -14 15 -23 20 -21 4 3 17 -10 28 -28 11 -19 59
-70 106 -115 47 -45 85 -87 85 -93 0 -7 3 -10 6 -6 7 6 84 -79 84 -93 0 -5 9
-12 21 -15 11 -4 18 -9 15 -13 -4 -3 6 -14 21 -24 16 -10 25 -18 21 -18 -4 0
19 -24 51 -53 33 -28 60 -57 60 -63 1 -6 12 -16 25 -24 13 -7 26 -20 29 -30 4
-16 -4 -17 -77 -17 -45 0 -88 -3 -94 -7 -7 -4 -12 -4 -12 1 -1 19 -25 -35 -26
-59 -1 -19 6 -29 23 -37 18 -8 22 -8 17 0 -4 8 -3 9 5 5 18 -12 61 -14 61 -4
0 5 9 4 20 -2 11 -6 20 -7 20 -2 0 10 36 9 46 -1 4 -4 13 -2 20 4 8 7 14 7 19
-1 5 -8 11 -8 21 1 11 9 14 9 14 -1 0 -10 3 -10 14 -1 10 8 16 9 21 1 4 -7 12
-7 25 0 13 7 21 7 25 0 5 -8 11 -8 20 0 10 8 15 8 20 0 5 -8 11 -8 21 1 11 9
14 9 14 -1 0 -9 3 -10 13 -1 9 6 17 7 23 1 6 -6 19 -3 35 8 22 15 25 21 17 48
-8 34 -46 57 -69 44 -8 -5 -19 -4 -26 2 -10 8 -13 7 -13 -3 0 -9 -3 -10 -8 -4
-4 6 -14 11 -22 13 -8 2 -16 8 -18 13 -2 5 -43 49 -90 98 -48 50 -127 134
-177 186 -49 53 -116 123 -147 155 -31 32 -54 61 -51 64 4 3 1 6 -6 6 -16 0
-42 26 -34 34 4 3 0 6 -9 6 -8 0 -20 11 -26 25 -7 14 -19 28 -27 31 -8 4 -15
12 -15 20 0 8 -3 14 -7 14 -11 0 -116 100 -106 100 4 0 0 5 -9 11 -10 5 -18
14 -18 18 0 12 80 91 92 91 6 0 9 2 6 5 -3 3 38 50 91 104 53 54 107 112 120
129 14 17 28 29 33 26 4 -3 8 0 8 6 0 6 34 44 75 83 41 40 75 76 75 81 0 4 45
52 101 107 81 81 104 99 121 93 15 -4 18 -3 13 6 -5 9 -3 9 11 2 23 -12 50 -8
66 10 20 20 21 63 3 78 -20 16 -55 21 -55 7 0 -5 -6 -4 -13 2 -8 6 -16 8 -20
5 -10 -10 -57 -12 -57 -2 0 5 -5 6 -11 3 -15 -10 -80 -12 -85 -3 -3 4 -16 3
-29 -2 -16 -6 -25 -6 -25 1 0 6 -7 6 -20 -1 -14 -8 -20 -8 -20 0 0 8 -6 8 -20
0 -15 -8 -20 -8 -20 2 0 8 -3 9 -8 3 -6 -9 -26 -12 -34 -5 -10 7 -48 5 -59 -4
-15 -12 -21 -56 -7 -56 4 0 7 -3 6 -7 0 -5 2 -15 6 -23 5 -12 24 -15 84 -14
43 0 84 4 92 9 9 5 11 4 6 -3 -4 -7 -2 -12 5 -12 7 0 5 -8 -7 -19 -10 -10 -22
-17 -26 -14 -5 2 -8 -3 -8 -12 0 -9 -4 -13 -10 -10 -5 3 -10 -1 -10 -9 0 -8
-9 -18 -21 -21 -11 -4 -18 -9 -15 -12 3 -3 -8 -16 -24 -30 -16 -13 -32 -33
-35 -44 -4 -10 -10 -17 -15 -14 -5 3 -11 -3 -15 -14 -3 -11 -13 -22 -21 -25
-8 -3 -12 -11 -9 -16 4 -6 2 -9 -3 -8 -10 3 -160 -147 -216 -215 -17 -20 -33
-34 -38 -31 -4 3 -8 0 -8 -6 0 -16 -160 -171 -171 -164 -5 3 -9 0 -9 -6 0 -7
-7 -10 -15 -6 -8 3 -15 1 -15 -3 0 -5 -11 -8 -25 -6 -14 1 -25 -2 -25 -7 0 -5
-7 -5 -17 0 -10 5 -26 8 -35 7 -10 -2 -18 0 -19 3 -1 10 -1 643 0 669 1 18 6
21 31 18 21 -3 28 -1 24 7 -5 7 -2 8 6 3 19 -12 69 -14 76 -3 3 5 12 4 20 -3
11 -9 14 -8 14 5 0 10 4 14 10 11 15 -9 23 41 10 65 -6 11 -19 20 -28 19 -9
-1 -19 0 -22 1 -17 6 -60 4 -60 -3 0 -5 -6 -4 -13 2 -8 6 -16 8 -20 5 -10 -10
-57 -12 -57 -2 0 5 -5 6 -11 3 -15 -10 -80 -12 -85 -3 -3 4 -16 3 -29 -2 -16
-6 -25 -6 -25 1 0 6 -7 6 -20 -1 -14 -8 -20 -8 -20 0 0 7 -6 8 -19 0 -14 -7
-22 -7 -26 0 -5 8 -11 8 -20 0 -10 -8 -15 -8 -20 0 -5 8 -11 8 -19 1 -7 -6
-16 -8 -19 -4 -4 3 -6 -12 -5 -33 1 -56 20 -69 101 -69 40 -1 67 3 67 10 1 5
10 -1 21 -15 12 -13 17 -26 12 -27 -5 -2 -6 -30 -3 -63 3 -33 2 -60 -2 -60 -5
0 -4 -9 2 -20 6 -11 7 -20 2 -20 -4 0 -5 -27 -2 -60 3 -33 2 -60 -2 -60 -5 0
-4 -9 2 -20 6 -11 7 -20 3 -20 -4 0 -6 -54 -3 -120 3 -66 1 -120 -3 -120 -4 0
-3 -9 3 -20 7 -12 7 -20 1 -20 -5 0 -8 -11 -5 -24 4 -24 4 -24 -81 -21 -58 2
-83 0 -78 -7 4 -7 1 -8 -7 -3 -22 13 -122 16 -114 3 5 -7 2 -8 -7 -3 -20 13
-240 14 -232 2 4 -6 1 -7 -8 -1 -8 4 -59 9 -114 10 -55 1 -104 2 -108 3 -4 0
-7 36 -5 79 1 43 -2 83 -6 90 -4 7 -2 12 5 12 8 0 9 3 0 13 -6 8 -8 16 -5 20
8 8 8 182 0 196 -4 6 -2 11 5 11 8 0 9 3 0 13 -6 8 -8 16 -5 20 8 7 9 181 1
194 -14 23 14 29 120 29 64 -1 109 3 106 8 -4 5 0 6 7 1 18 -11 160 -13 153
-2 -3 5 2 5 13 0 48 -22 80 0 78 54 -3 55 -3 55 -15 48 -17 -11 -59 -13 -59
-3 0 5 -5 6 -11 3 -14 -10 -80 -12 -85 -4 -2 4 -19 3 -38 -1 -19 -4 -38 -5
-41 -2 -9 10 -55 8 -55 -2 0 -6 -5 -5 -12 2 -7 7 -17 8 -28 2 -9 -5 -22 -5
-30 0 -7 4 -24 4 -37 -1 -13 -5 -23 -5 -23 0 0 5 -9 7 -19 4 -18 -5 -20 0 -19
44 1 27 -2 54 -6 61 -4 7 -2 12 5 12 8 0 9 3 0 13 -6 8 -8 16 -5 20 8 8 8 182
0 196 -4 6 -2 11 5 11 9 0 9 3 0 14 -8 9 -8 16 -2 20 7 4 7 15 1 30 -5 13 -6
27 -3 30 3 3 6 49 7 103 l1 98 377 0 376 0 4 -37 c2 -21 0 -38 -5 -38 -4 0 -3
-9 3 -20 6 -12 7 -20 1 -20 -6 0 -6 -11 -1 -30 6 -21 5 -30 -3 -30 -7 0 -4 -5
5 -11 9 -5 15 -15 13 -22 -6 -16 40 -38 53 -25 6 6 12 6 16 -1 5 -7 13 -8 25
-2 16 9 18 27 18 163 0 109 -3 160 -13 178 -7 14 -13 19 -14 11 0 -10 -3 -11
-13 -2 -8 6 -16 8 -19 6z"/>
</g>
</svg>
